<svg width="1024" height="1024" viewBox="0 0 1024 1024" fill="none" xmlns="http://www.w3.org/2000/svg">
<g clip-path="url(#clip0_80410_777)">
<rect width="1024" height="1024" fill="#013D2A"/>
<g filter="url(#filter0_d_80410_777)">
<path fill-rule="evenodd" clip-rule="evenodd" d="M333.845 1126.59C275.057 1179.33 184.673 1174.42 131.941 1115.63C79.2082 1056.84 84.1161 966.459 142.904 913.726L196.121 865.991L387.062 1078.86L333.845 1126.59ZM461.134 443.084C474.066 427.01 487.86 412.233 502.205 399.366C652.476 264.573 840.204 192.217 935.675 298.651C1003.13 373.853 1015.8 518.79 868.813 721.218C825.877 780.348 773.593 832.168 715.783 877.091C667.504 914.605 614.223 944.872 559.775 971.863L440.278 1031.12L249.338 818.256C343.681 733.631 357.577 679.551 372.914 619.867C373.854 616.205 374.801 612.523 375.771 608.811C380.099 592.254 385.913 575.23 392.98 558.193C394.391 558.254 395.839 558.284 397.323 558.284C410.423 558.284 423.723 556.484 437.223 552.884L433.023 526.484C423.602 529.459 414.249 531.205 404.964 531.721C406.231 529.139 407.525 526.562 408.844 523.992C410.537 523.8 412.146 523.581 413.673 523.334C420.473 522.134 425.923 520.334 430.023 517.934C434.123 515.534 437.023 512.484 438.723 508.784C440.523 504.984 441.423 500.484 441.423 495.284C441.423 488.984 440.673 483.784 439.173 479.684C438.681 478.208 438.059 476.843 437.308 475.589C443.569 466.222 450.136 457.113 456.959 448.357L450.383 555.584H488.033L490.133 500.984H491.183L505.133 555.584H532.583L546.383 500.984H547.583L549.683 555.584H587.333L580.583 443.084H533.483L519.533 500.384H518.183L504.233 443.084H461.134ZM461.134 443.084H457.283L456.959 448.357C458.341 446.585 459.733 444.827 461.134 443.084ZM437.308 475.589C435.921 473.276 434.093 471.341 431.823 469.784C428.423 467.284 423.923 465.534 418.323 464.534C412.723 463.434 405.723 462.884 397.323 462.884C380.623 462.884 368.473 466.834 360.873 474.734C353.373 482.534 349.623 494.484 349.623 510.584C349.623 526.684 353.373 538.684 360.873 546.584C367.71 553.695 378.413 557.565 392.98 558.193C396.648 549.351 400.653 540.506 404.964 531.721C403.014 531.83 401.067 531.884 399.123 531.884C397.323 531.884 395.523 531.834 393.723 531.734C391.923 531.634 390.123 531.484 388.323 531.284V524.984C396.156 524.984 402.996 524.653 408.844 523.992C417.344 507.431 426.905 491.153 437.308 475.589ZM88.1 523.934L83 553.634C89.7 555.134 96.65 556.284 103.85 557.084C111.05 557.884 118.55 558.284 126.35 558.284C129.45 558.284 132.9 558.184 136.7 557.984C140.6 557.884 144.45 557.534 148.25 556.934C152.05 556.334 155.65 555.434 159.05 554.234C162.45 552.934 165.3 551.184 167.6 548.984C170.4 546.284 172.8 542.334 174.8 537.134C176.8 531.934 177.8 525.534 177.8 517.934C177.8 512.634 177.1 507.934 175.7 503.834C174.4 499.734 172.1 496.184 168.8 493.184C165.6 490.184 161.35 487.784 156.05 485.984C150.75 484.084 144.15 482.734 136.25 481.934L123.35 480.734V471.884C128.05 471.284 133.75 470.984 140.45 470.984C147.15 470.984 156.1 471.884 167.3 473.684L171.8 444.884C158.9 441.884 144.5 440.384 128.6 440.384C120.6 440.384 113.8 441.034 108.2 442.334C102.7 443.634 98.2 445.884 94.7 449.084C91.2 452.184 88.65 456.334 87.05 461.534C85.45 466.634 84.65 473.034 84.65 480.734C84.65 486.334 85.25 491.234 86.45 495.434C87.75 499.534 89.85 503.084 92.75 506.084C95.75 508.984 99.7 511.284 104.6 512.984C109.5 514.684 115.6 515.884 122.9 516.584L139.1 517.934V526.934C136.4 527.334 133.3 527.634 129.8 527.834C126.4 527.934 122.45 527.984 117.95 527.984C109.05 527.984 99.1 526.634 88.1 523.934ZM199.007 474.734C191.507 482.534 187.757 494.484 187.757 510.584C187.757 526.984 191.607 539.034 199.307 546.734C207.007 554.434 219.057 558.284 235.457 558.284C252.257 558.284 264.407 554.384 271.907 546.584C279.407 538.684 283.157 526.684 283.157 510.584C283.157 494.484 279.407 482.534 271.907 474.734C264.407 466.834 252.257 462.884 235.457 462.884C218.657 462.884 206.507 466.834 199.007 474.734ZM226.457 532.034V496.784C226.457 493.484 227.407 491.384 229.307 490.484C231.307 489.584 234.507 489.134 238.907 489.134H244.457V524.384C244.457 527.684 243.457 529.784 241.457 530.684C239.557 531.584 236.407 532.034 232.007 532.034H226.457ZM333.559 435.884L297.559 438.584V538.634C297.559 543.134 298.609 546.584 300.709 548.984C302.909 551.384 306.109 553.334 310.309 554.834C315.309 556.634 325.459 557.534 340.759 557.534L342.409 531.134C341.409 531.034 340.159 530.884 338.659 530.684C337.159 530.484 335.459 530.184 333.559 529.784V435.884ZM388.323 504.134V496.784C388.323 493.484 389.273 491.384 391.173 490.484C393.173 489.584 396.373 489.134 400.773 489.134H408.123V496.484C408.123 499.784 407.123 501.884 405.123 502.784C403.223 503.684 400.073 504.134 395.673 504.134H388.323ZM686.581 492.584C686.581 472.784 672.181 462.884 643.381 462.884C627.681 462.884 613.831 464.734 601.831 468.434L606.181 494.234C615.981 490.934 627.631 489.284 641.131 489.284C642.431 489.284 643.831 489.334 645.331 489.434C646.931 489.534 648.681 489.634 650.581 489.734V496.184H643.381C610.781 496.184 594.481 506.984 594.481 528.584C594.481 534.084 595.231 538.734 596.731 542.534C598.231 546.334 600.381 549.384 603.181 551.684C605.981 553.984 609.381 555.634 613.381 556.634C617.481 557.734 622.081 558.284 627.181 558.284C629.881 558.284 632.681 557.984 635.581 557.384C638.481 556.784 641.331 555.934 644.131 554.834C646.931 553.734 649.531 552.384 651.931 550.784C654.431 549.184 656.581 547.384 658.381 545.384L668.581 555.584H686.581V492.584ZM630.781 532.034V524.684C630.781 521.384 631.781 519.284 633.781 518.384C635.781 517.484 638.931 517.034 643.231 517.034H650.581V525.584C650.581 527.384 649.881 528.934 648.481 530.234C646.881 531.434 643.481 532.034 638.281 532.034H630.781ZM697.334 488.834H706.334V538.634C706.334 543.234 707.434 546.734 709.634 549.134C711.834 551.434 715.034 553.334 719.234 554.834C724.234 556.634 734.934 557.534 751.334 557.534L752.984 531.134C750.984 531.034 749.084 530.884 747.284 530.684C745.484 530.384 743.834 530.084 742.334 529.784V488.834H754.784V465.584H742.334V442.184L706.334 451.184V465.584H697.334V488.834ZM836.463 554.534L834.213 528.584C828.213 530.884 822.413 532.034 816.813 532.034C814.013 532.034 811.463 531.934 809.163 531.734C806.963 531.534 805.013 531.284 803.313 530.984V498.734C803.313 492.334 807.863 489.134 816.963 489.134C818.863 489.134 821.063 489.334 823.563 489.734C826.063 490.034 828.913 490.484 832.113 491.084L836.463 466.634C831.063 464.134 823.013 462.884 812.313 462.884C795.513 462.884 783.363 466.834 775.863 474.734C768.363 482.534 764.613 494.484 764.613 510.584C764.613 526.684 768.363 538.684 775.863 546.584C783.363 554.384 795.513 558.284 812.313 558.284C822.213 558.284 830.263 557.034 836.463 554.534ZM850.83 555.584H886.83V500.084C886.83 496.884 887.78 494.834 889.68 493.934C891.68 493.034 894.88 492.584 899.28 492.584H904.83V555.584H940.83V483.584C940.83 477.084 938.43 472.034 933.63 468.434C928.83 464.734 921.73 462.884 912.33 462.884C903.03 462.884 894.53 464.884 886.83 468.884V435.884L850.83 438.584V555.584Z" fill="#FAFAFA"/>
</g>
</g>
<defs>
<filter id="filter0_d_80410_777" x="83" y="247.504" width="920.97" height="935.639" filterUnits="userSpaceOnUse" color-interpolation-filters="sRGB">
<feFlood flood-opacity="0" result="BackgroundImageFix"/>
<feColorMatrix in="SourceAlpha" type="matrix" values="0 0 0 0 0 0 0 0 0 0 0 0 0 0 0 0 0 0 127 0" result="hardAlpha"/>
<feOffset dx="10" dy="10"/>
<feGaussianBlur stdDeviation="5"/>
<feComposite in2="hardAlpha" operator="out"/>
<feColorMatrix type="matrix" values="0 0 0 0 0 0 0 0 0 0 0 0 0 0 0 0 0 0 0.25 0"/>
<feBlend mode="normal" in2="BackgroundImageFix" result="effect1_dropShadow_80410_777"/>
<feBlend mode="normal" in="SourceGraphic" in2="effect1_dropShadow_80410_777" result="shape"/>
</filter>
<clipPath id="clip0_80410_777">
<rect width="1024" height="1024" fill="white"/>
</clipPath>
</defs>
</svg>
